<?xml version="1.0" encoding="utf-8"?>
<!-- Generator: Adobe Illustrator 26.5.0, SVG Export Plug-In . SVG Version: 6.00 Build 0)  -->
<svg version="1.1" id="Layer_1" xmlns="http://www.w3.org/2000/svg" xmlns:xlink="http://www.w3.org/1999/xlink" x="0px" y="0px"
	 viewBox="0 0 1366 768" style="enable-background:new 0 0 1366 768;" xml:space="preserve">
<style type="text/css">
	.st0{fill:none;stroke:url(#SVGID_1_);stroke-width:0.75;stroke-miterlimit:10;}
	.st1{fill:none;stroke:url(#SVGID_00000003819428048841850470000000251655458889921920_);stroke-width:0.75;stroke-miterlimit:10;}
	.st2{fill:none;stroke:url(#SVGID_00000091703846141647122630000015316928762360331168_);stroke-width:0.75;stroke-miterlimit:10;}
	.st3{fill:none;stroke:url(#SVGID_00000036947036661399042440000018025452287955365761_);stroke-width:0.75;stroke-miterlimit:10;}
	.st4{fill:none;stroke:url(#SVGID_00000173848886195801140730000001031057856093615807_);stroke-width:0.75;stroke-miterlimit:10;}
	.st5{fill:none;stroke:url(#SVGID_00000147898401552163396190000017159585280901262732_);stroke-width:0.75;stroke-miterlimit:10;}
	.st6{fill:none;stroke:url(#SVGID_00000096042725322077846690000015074635935042694274_);stroke-width:0.75;stroke-miterlimit:10;}
</style>
<g>
	<g>
		<g>
			
				<linearGradient id="SVGID_1_" gradientUnits="userSpaceOnUse" x1="345.5541" y1="2382.8853" x2="794.3461" y2="2382.8853" gradientTransform="matrix(0.7071 0.7071 -0.7071 0.7071 1940.5748 -1704.2419)">
				<stop  offset="0" style="stop-color:#CCE0F4"/>
				<stop  offset="6.405089e-02" style="stop-color:#C3DCF2"/>
				<stop  offset="0.1706" style="stop-color:#A9D2EE"/>
				<stop  offset="0.3066" style="stop-color:#80C2E7"/>
				<stop  offset="0.4649" style="stop-color:#47ACDE"/>
				<stop  offset="0.5674" style="stop-color:#1E9CD7"/>
				<stop  offset="0.8652" style="stop-color:#0075BE"/>
				<stop  offset="0.9944" style="stop-color:#005B97"/>
			</linearGradient>
			<path class="st0" d="M663.9,694.9c-2.9,4.7-7.6,4.7-10.5,0L466.8,392.2c-2.9-4.7-2.9-12.3,0-17L653.4,72.5
				c2.9-4.7,7.6-4.7,10.5,0l186.6,302.7c2.9,4.7,2.9,12.3,0,17L663.9,694.9z"/>
		</g>
	</g>
</g>
<g>
	<g>
		<g>
			
				<linearGradient id="SVGID_00000023965816246524377900000003437761078726284724_" gradientUnits="userSpaceOnUse" x1="368.1601" y1="2382.8853" x2="771.7401" y2="2382.8853" gradientTransform="matrix(0.7071 0.7071 -0.7071 0.7071 1940.5748 -1704.2419)">
				<stop  offset="0" style="stop-color:#CCE0F4"/>
				<stop  offset="6.405089e-02" style="stop-color:#C3DCF2"/>
				<stop  offset="0.1706" style="stop-color:#A9D2EE"/>
				<stop  offset="0.3066" style="stop-color:#80C2E7"/>
				<stop  offset="0.4649" style="stop-color:#47ACDE"/>
				<stop  offset="0.5674" style="stop-color:#1E9CD7"/>
				<stop  offset="0.8652" style="stop-color:#0075BE"/>
				<stop  offset="0.9944" style="stop-color:#005B97"/>
			</linearGradient>
			
				<path style="fill:none;stroke:url(#SVGID_00000023965816246524377900000003437761078726284724_);stroke-width:0.75;stroke-miterlimit:10;" d="
				M663.9,662.9c-2.9,4.7-7.6,4.7-10.5,0L486.5,392.2c-2.9-4.7-2.9-12.3,0-17l166.9-270.7c2.9-4.7,7.6-4.7,10.5,0l166.9,270.7
				c2.9,4.7,2.9,12.3,0,17L663.9,662.9z"/>
		</g>
	</g>
</g>
<g>
	<g>
		<g>
			
				<linearGradient id="SVGID_00000152962199679303128200000008166072027077462964_" gradientUnits="userSpaceOnUse" x1="300.3422" y1="2382.8853" x2="839.558" y2="2382.8853" gradientTransform="matrix(0.7071 0.7071 -0.7071 0.7071 1940.5748 -1704.2419)">
				<stop  offset="0" style="stop-color:#CCE0F4"/>
				<stop  offset="6.405089e-02" style="stop-color:#C3DCF2"/>
				<stop  offset="0.1706" style="stop-color:#A9D2EE"/>
				<stop  offset="0.3066" style="stop-color:#80C2E7"/>
				<stop  offset="0.4649" style="stop-color:#47ACDE"/>
				<stop  offset="0.5674" style="stop-color:#1E9CD7"/>
				<stop  offset="0.8652" style="stop-color:#0075BE"/>
				<stop  offset="0.9944" style="stop-color:#005B97"/>
			</linearGradient>
			
				<path style="fill:none;stroke:url(#SVGID_00000152962199679303128200000008166072027077462964_);stroke-width:0.75;stroke-miterlimit:10;" d="
				M663.9,758.9c-2.9,4.7-7.6,4.7-10.5,0l-226-366.6c-2.9-4.7-2.9-12.3,0-17l226-366.6c2.9-4.7,7.6-4.7,10.5,0l226,366.6
				c2.9,4.7,2.9,12.3,0,17L663.9,758.9z"/>
		</g>
	</g>
</g>
<g>
	<g>
		<g>
			
				<linearGradient id="SVGID_00000128464224515867509760000013700536069027597958_" gradientUnits="userSpaceOnUse" x1="322.9482" y1="2382.8853" x2="816.952" y2="2382.8853" gradientTransform="matrix(0.7071 0.7071 -0.7071 0.7071 1940.5748 -1704.2419)">
				<stop  offset="0" style="stop-color:#CCE0F4"/>
				<stop  offset="6.405089e-02" style="stop-color:#C3DCF2"/>
				<stop  offset="0.1706" style="stop-color:#A9D2EE"/>
				<stop  offset="0.3066" style="stop-color:#80C2E7"/>
				<stop  offset="0.4649" style="stop-color:#47ACDE"/>
				<stop  offset="0.5674" style="stop-color:#1E9CD7"/>
				<stop  offset="0.8652" style="stop-color:#0075BE"/>
				<stop  offset="0.9944" style="stop-color:#005B97"/>
			</linearGradient>
			
				<path style="fill:none;stroke:url(#SVGID_00000128464224515867509760000013700536069027597958_);stroke-width:0.75;stroke-miterlimit:10;" d="
				M663.9,726.9c-2.9,4.7-7.6,4.7-10.5,0L447.1,392.2c-2.9-4.7-2.9-12.3,0-17L653.4,40.6c2.9-4.7,7.6-4.7,10.5,0l206.3,334.6
				c2.9,4.7,2.9,12.3,0,17L663.9,726.9z"/>
		</g>
	</g>
</g>
<g>
	<g>
		<g>
			
				<linearGradient id="SVGID_00000139981562591678382620000006400467433414588831_" gradientUnits="userSpaceOnUse" x1="440.2241" y1="2380.48" x2="708.1683" y2="2380.48" gradientTransform="matrix(0.7071 0.7071 -0.7071 0.7071 1940.5748 -1704.2419)">
				<stop  offset="0" style="stop-color:#CCE0F4"/>
				<stop  offset="6.405089e-02" style="stop-color:#C3DCF2"/>
				<stop  offset="0.1706" style="stop-color:#A9D2EE"/>
				<stop  offset="0.3066" style="stop-color:#80C2E7"/>
				<stop  offset="0.4649" style="stop-color:#47ACDE"/>
				<stop  offset="0.5674" style="stop-color:#1E9CD7"/>
				<stop  offset="0.8652" style="stop-color:#0075BE"/>
				<stop  offset="0.9944" style="stop-color:#005B97"/>
			</linearGradient>
			
				<path style="fill:none;stroke:url(#SVGID_00000139981562591678382620000006400467433414588831_);stroke-width:0.75;stroke-miterlimit:10;" d="
				M668.6,568.3c-2.9,4.7-7.6,4.7-10.5,0L550.3,393.5c-2.9-4.7-2.9-12.3,0-17l107.8-174.8c2.9-4.7,7.6-4.7,10.5,0l107.8,174.8
				c2.9,4.7,2.9,12.3,0,17L668.6,568.3z"/>
		</g>
	</g>
</g>
<g>
	<g>
		<g>
			
				<linearGradient id="SVGID_00000134951146100300766750000006271236639190439299_" gradientUnits="userSpaceOnUse" x1="392.733" y1="2380.9182" x2="751.1011" y2="2380.9182" gradientTransform="matrix(0.7071 0.7071 -0.7071 0.7071 1940.5748 -1704.2419)">
				<stop  offset="0" style="stop-color:#CCE0F4"/>
				<stop  offset="6.405089e-02" style="stop-color:#C3DCF2"/>
				<stop  offset="0.1706" style="stop-color:#A9D2EE"/>
				<stop  offset="0.3066" style="stop-color:#80C2E7"/>
				<stop  offset="0.4649" style="stop-color:#47ACDE"/>
				<stop  offset="0.5674" style="stop-color:#1E9CD7"/>
				<stop  offset="0.8652" style="stop-color:#0075BE"/>
				<stop  offset="0.9944" style="stop-color:#005B97"/>
			</linearGradient>
			
				<path style="fill:none;stroke:url(#SVGID_00000134951146100300766750000006271236639190439299_);stroke-width:0.75;stroke-miterlimit:10;" d="
				M666.7,631c-2.9,4.7-7.6,4.7-10.5,0L509,392.2c-2.9-4.7-2.9-12.3,0-17l147.2-238.7c2.9-4.7,7.6-4.7,10.5,0l147.2,238.7
				c2.9,4.7,2.9,12.3,0,17L666.7,631z"/>
		</g>
	</g>
</g>
<g>
	<g>
		<g>
			
				<linearGradient id="SVGID_00000088817374602788294350000002810420176712743356_" gradientUnits="userSpaceOnUse" x1="415.339" y1="2380.9182" x2="728.4951" y2="2380.9182" gradientTransform="matrix(0.7071 0.7071 -0.7071 0.7071 1940.5748 -1704.2419)">
				<stop  offset="0" style="stop-color:#CCE0F4"/>
				<stop  offset="6.405089e-02" style="stop-color:#C3DCF2"/>
				<stop  offset="0.1706" style="stop-color:#A9D2EE"/>
				<stop  offset="0.3066" style="stop-color:#80C2E7"/>
				<stop  offset="0.4649" style="stop-color:#47ACDE"/>
				<stop  offset="0.5674" style="stop-color:#1E9CD7"/>
				<stop  offset="0.8652" style="stop-color:#0075BE"/>
				<stop  offset="0.9944" style="stop-color:#005B97"/>
			</linearGradient>
			
				<path style="fill:none;stroke:url(#SVGID_00000088817374602788294350000002810420176712743356_);stroke-width:0.75;stroke-miterlimit:10;" d="
				M666.7,599c-2.9,4.7-7.6,4.7-10.5,0L528.7,392.2c-2.9-4.7-2.9-12.3,0-17l127.5-206.8c2.9-4.7,7.6-4.7,10.5,0l127.5,206.8
				c2.9,4.7,2.9,12.3,0,17L666.7,599z"/>
		</g>
	</g>
</g>
</svg>
